<svg xmlns="http://www.w3.org/2000/svg" viewBox="0 0 120 120" fill="none">
  <defs>
    <linearGradient id="jd-gradient" x1="0" y1="0" x2="120" y2="120" gradientUnits="userSpaceOnUse">
      <stop offset="0%" stop-color="#84cc16"/>
      <stop offset="50%" stop-color="#22c55e"/>
      <stop offset="100%" stop-color="#16a34a"/>
    </linearGradient>
    <linearGradient id="jd-scatter" x1="0" y1="0" x2="120" y2="120" gradientUnits="userSpaceOnUse">
      <stop offset="0%" stop-color="#a3e635"/>
      <stop offset="100%" stop-color="#4ade80"/>
    </linearGradient>
  </defs>
  <!-- J letter -->
  <path d="M28 20h18v52c0 12-6 20-18 24-8 2.5-14 1-18-2l6-14c3 2.5 6 3 9 1.5 4-2 3-6 3-9.5V20z" fill="url(#jd-gradient)"/>
  <!-- D letter -->
  <path d="M62 20h16c20 0 32 14 32 36s-12 36-32 36H62V20zm18 56c12 0 18-8 18-20s-6-20-18-20H80v40h0z" fill="url(#jd-gradient)"/>
  <!-- Pixel scatter particles -->
  <rect x="4" y="4" width="5" height="5" rx="1" fill="url(#jd-scatter)" opacity="0.7"/>
  <rect x="16" y="8" width="3" height="3" rx="0.5" fill="url(#jd-scatter)" opacity="0.5"/>
  <rect x="100" y="6" width="4" height="4" rx="1" fill="url(#jd-scatter)" opacity="0.6"/>
  <rect x="112" y="16" width="3" height="3" rx="0.5" fill="url(#jd-scatter)" opacity="0.4"/>
  <rect x="6" y="108" width="4" height="4" rx="1" fill="url(#jd-scatter)" opacity="0.5"/>
  <rect x="108" y="104" width="5" height="5" rx="1" fill="url(#jd-scatter)" opacity="0.6"/>
  <rect x="112" y="90" width="3" height="3" rx="0.5" fill="url(#jd-scatter)" opacity="0.3"/>
  <rect x="2" y="56" width="3" height="3" rx="0.5" fill="url(#jd-scatter)" opacity="0.4"/>
  <rect x="50" y="2" width="3" height="3" rx="0.5" fill="url(#jd-scatter)" opacity="0.3"/>
  <rect x="56" y="112" width="4" height="4" rx="1" fill="url(#jd-scatter)" opacity="0.5"/>
</svg>
