<svg xmlns="http://www.w3.org/2000/svg" viewBox="0 0 360 80" fill="none">
  <defs>
    <linearGradient id="jdh-gradient" x1="0" y1="0" x2="80" y2="80" gradientUnits="userSpaceOnUse">
      <stop offset="0%" stop-color="#84cc16"/>
      <stop offset="50%" stop-color="#22c55e"/>
      <stop offset="100%" stop-color="#16a34a"/>
    </linearGradient>
    <linearGradient id="jdh-scatter" x1="0" y1="0" x2="80" y2="80" gradientUnits="userSpaceOnUse">
      <stop offset="0%" stop-color="#a3e635"/>
      <stop offset="100%" stop-color="#4ade80"/>
    </linearGradient>
  </defs>
  <!-- Monogram mark -->
  <g transform="translate(4 4) scale(0.6)">
    <!-- J letter -->
    <path d="M28 20h18v52c0 12-6 20-18 24-8 2.5-14 1-18-2l6-14c3 2.5 6 3 9 1.5 4-2 3-6 3-9.5V20z" fill="url(#jdh-gradient)"/>
    <!-- D letter -->
    <path d="M62 20h16c20 0 32 14 32 36s-12 36-32 36H62V20zm18 56c12 0 18-8 18-20s-6-20-18-20H80v40h0z" fill="url(#jdh-gradient)"/>
    <!-- Scatter particles -->
    <rect x="4" y="4" width="4" height="4" rx="1" fill="url(#jdh-scatter)" opacity="0.6"/>
    <rect x="100" y="6" width="3" height="3" rx="0.5" fill="url(#jdh-scatter)" opacity="0.5"/>
    <rect x="108" y="104" width="4" height="4" rx="1" fill="url(#jdh-scatter)" opacity="0.5"/>
    <rect x="6" y="108" width="3" height="3" rx="0.5" fill="url(#jdh-scatter)" opacity="0.4"/>
  </g>
  <!-- JERNA text - bold, wide tracking -->
  <text x="92" y="42" font-family="system-ui, -apple-system, sans-serif" font-weight="700" font-size="30" letter-spacing="6" fill="currentColor">JERNA</text>
  <!-- DIGITAL text - lighter weight -->
  <text x="92" y="68" font-family="system-ui, -apple-system, sans-serif" font-weight="300" font-size="30" letter-spacing="6" fill="currentColor" opacity="0.7">DIGITAL</text>
</svg>
